<?xml version="1.0" standalone="no"?><!DOCTYPE svg PUBLIC "-//W3C//DTD SVG 1.1//EN" "http://www.w3.org/Graphics/SVG/1.1/DTD/svg11.dtd"><svg  class="icon" viewBox="0 0 1024 1024" version="1.1" xmlns="http://www.w3.org/2000/svg"  xmlns:xlink="http://www.w3.org/1999/xlink" width="200" height="200"><defs><style type="text/css"></style></defs><path d="M993.77925356 522.62781492l-264.91755579 264.06902765a40.00000031 40.00000031 0 0 1-28.23477311 11.66019061l-652.63834628 0.10606601a19.99999969 19.99999969 0 0 1-19.9262693-18.27163944l-0.07071025-1.72534011 0-540.00330665a19.99999969 19.99999969 0 0 1 18.26456816-19.91919803l1.73241139-0.07778152L700.63399528 218.57897007a40.00000031 40.00000031 0 0 1 28.23477378 11.66019127l264.91755513 264.06902699a19.99999969 19.99999969 0 0 1 0.04242707 28.28427147l-0.04242641 0.04242641zM691.61838383 572.11114791a90 90 0 1 0-127.27922062-127.27922062 90 90 0 0 0 127.27922062 127.27922062z m-489.49466928-253.64627348l0 379.99918377-79.99499016 0.00707062 0-379.99918376 79.99499016-0.00707063z" fill="#ffffff" ></path></svg>